<?xml version="1.0" encoding="UTF-8" standalone="no"?>
<!DOCTYPE svg PUBLIC "-//W3C//DTD SVG 1.1//EN" "http://www.w3.org/Graphics/SVG/1.1/DTD/svg11.dtd">
<svg width="100%" height="100%" viewBox="0 0 439 439" version="1.1" xmlns="http://www.w3.org/2000/svg" xmlns:xlink="http://www.w3.org/1999/xlink" xml:space="preserve" xmlns:serif="http://www.serif.com/" style="fill-rule:evenodd;clip-rule:evenodd;stroke-linejoin:round;stroke-miterlimit:1.41421;">
    <g>
        <path d="M246.676,182.72C239.059,182.72 232.587,180.057 227.259,174.727C221.929,169.4 219.267,162.928 219.267,155.313L219.267,0L63.953,0C56.341,0 49.869,2.663 44.54,7.993C39.21,13.32 36.546,19.792 36.546,27.407L36.546,411.126C36.546,418.743 39.21,425.215 44.54,430.543C49.87,435.868 56.341,438.534 63.954,438.534L374.587,438.534C382.198,438.534 388.666,435.868 393.994,430.543C399.322,425.211 401.988,418.743 401.988,411.126L401.988,182.72L246.676,182.72ZM328.9,356.309C328.9,358.971 328.045,361.162 326.334,362.872C324.623,364.582 322.433,365.439 319.77,365.439L118.77,365.439C116.107,365.439 113.917,364.583 112.203,362.872C110.494,361.161 109.635,358.971 109.635,356.309L109.635,338.035C109.635,335.366 110.491,333.176 112.203,331.465C113.918,329.761 116.108,328.899 118.77,328.899L319.77,328.899C322.433,328.899 324.624,329.761 326.334,331.465C328.045,333.176 328.9,335.366 328.9,338.035L328.9,356.309ZM328.9,283.218C328.9,285.888 328.045,288.071 326.334,289.789C324.623,291.496 322.433,292.355 319.77,292.355L118.77,292.355C116.107,292.355 113.917,291.496 112.203,289.789C110.494,288.07 109.635,285.888 109.635,283.218L109.635,264.944C109.635,262.282 110.491,260.091 112.203,258.381C113.918,256.67 116.108,255.815 118.77,255.815L319.77,255.815C322.433,255.815 324.624,256.67 326.334,258.381C328.044,260.092 328.9,262.282 328.9,264.944L328.9,283.218Z" style="fill:white;fill-rule:nonzero;"/>
        <path d="M382.58,108.493L293.502,19.412C283.981,9.895 271.415,3.706 255.81,0.854L255.81,146.178L401.136,146.178C398.281,130.566 392.091,118.006 382.58,108.493Z" style="fill:white;fill-rule:nonzero;"/>
    </g>
</svg>
